<svg width="100" height="25" viewBox="0 0 115 30" fill="#071003" xmlns="http://www.w3.org/2000/svg"><path d="M62.3302 6.99219C69.1627 6.99219 72.6168 10.6741 72.6168 18.0379C72.6168 21.5301 71.554 24.8704 69.8459 26.8062C68.1378 28.7421 65.3669 29.7669 61.9127 29.7669C58.5724 29.7669 56.1051 28.856 54.5109 27.0719C52.7269 25.0981 51.6641 21.7578 51.6641 18C51.6641 10.7121 55.2701 6.99219 62.3302 6.99219ZM62.2543 13.7107C59.5593 13.7107 58.1549 15.4568 58.1549 18.7591C58.1549 22.3272 59.5973 24.339 62.1404 24.339C64.6836 24.339 66.164 22.2133 66.164 18.5694C66.164 15.3429 64.8734 13.7107 62.2543 13.7107Z" fill="#071003"></path><path d="M95.2985 7.75195V29.0084H88.4661V26.7689C88.4661 26.0477 88.504 25.8579 88.6938 24.4914H88.4661C87.8208 26.3513 87.3653 27.1485 86.4923 27.9835C85.3156 29.1602 83.6834 29.7676 81.8614 29.7676C79.6219 29.7676 77.6481 28.8566 76.5473 27.3003C75.9399 26.4273 75.4465 24.9469 75.2947 23.3147C75.2567 22.6694 75.2188 21.3788 75.2188 18.1145V7.75195H82.3548V17.9247C82.3548 21.3409 82.3928 21.6446 82.8103 22.3658C83.2658 23.087 84.063 23.5045 85.0499 23.5045C86.3784 23.5045 87.4412 22.7453 87.8587 21.5307C88.1244 20.6956 88.1624 20.316 88.1624 17.9247V7.75195H95.2985Z" fill="#071003"></path><path d="M41.8672 29.0537V0.806641H48.9289V29.0537H41.8672Z" fill="#071003"></path><path d="M31.1094 29.0537V0.806641H38.3393V29.0537H31.1094Z" fill="#071003"></path><path d="M0 3.83203H17.15V10.168H6.70099V14.3406H17.15V20.2213H6.70099V29.0526H0V3.83203Z" fill="#071003"></path><path d="M20.4375 29.0087L20.4375 7.98242C21.7281 8.47587 22.5631 8.6277 23.8917 8.6277C25.1822 8.6277 26.2071 8.43792 27.5736 7.98242L27.5736 29.0087H20.4375Z" fill="#071003"></path><path d="M23.9284 6.74414C21.1852 6.74414 19.7983 5.78411 19.7983 3.86406C19.7983 2.95351 20.225 2.08256 20.9109 1.5778C21.5967 1.07305 22.7092 0.805824 24.0961 0.805824C25.4372 0.805824 26.4278 1.04336 27.0679 1.50852C27.7842 2.02318 28.2109 2.89413 28.2109 3.87395C28.2109 5.77422 26.7631 6.74414 23.9284 6.74414Z" fill="#071003"></path><path fill-rule="evenodd" clip-rule="evenodd" d="M102.777 3.77539C102.777 9.16515 100.882 10.1374 97.3516 10.1374V14.3178H100.882C100.73 16.5573 100.692 17.9238 100.692 20.0874C100.692 23.9212 101.033 25.857 101.944 27.2994C102.969 28.8937 104.981 29.7667 107.638 29.7667C110.371 29.7667 112.155 29.0455 114.015 27.1856V22.251C112.876 23.6934 111.662 24.3387 110.181 24.3387C109.27 24.3387 108.473 23.9591 108.094 23.3518C107.676 22.7065 107.524 21.7196 107.524 19.9736C107.524 17.5442 107.41 14.3178 107.41 14.3178H114.015V7.73396H107.41V3.77539H102.777Z" fill="#071003"></path></svg> 